# xmcd CD database file
#
# Track frame offsets:
#	150
#	18316
#	34465
#	53264
#	71897
#	87189
#	108313
#	121110
#	141029
#	157671
#	175278
#	192054
#	209784
#	235075
#
# Disc length: 3434 seconds
#
# Revision: 0
# Processed by: cddbd v1.5.2PL0 Copyright (c) Steve Scherf et al.
# Submitted via: CDex 1.51
#
DISCID=b50d680e
DTITLE=Wildseed - The Speed Of Light
DYEAR=2009
DGENRE=Country
TTITLE0=The Speed Of Light
TTITLE1=Greed
TTITLE2=If I Only Had Time
TTITLE3=A Handful Of Emptiness
TTITLE4=Sacrifice
TTITLE5=The Pain
TTITLE6=Goose On The Loose
TTITLE7=So Complicated
TTITLE8=Raising hell Tonight
TTITLE9=Another Three Days
TTITLE10=The Backpackers Chant
TTITLE11=We Haven't Learned A Thing
TTITLE12=Where's My River
TTITLE13=Where Were You
EXTD=YEAR: 2009
EXTT0=
EXTT1=
EXTT2=
EXTT3=
EXTT4=
EXTT5=
EXTT6=
EXTT7=
EXTT8=
EXTT9=
EXTT10=
EXTT11=
EXTT12=
EXTT13=
PLAYORDER=
